<?xml version="1.0" encoding="us-ascii" standalone="no"?><svg xmlns="http://www.w3.org/2000/svg" xmlns:xlink="http://www.w3.org/1999/xlink" contentStyleType="text/css" height="955px" preserveAspectRatio="none" style="width:990px;height:955px;background:#FFFFFF;" version="1.1" viewBox="0 0 990 955" width="990px" zoomAndPan="magnify"><defs/><g><!--cluster Portalapp--><g id="cluster_Portalapp"><rect fill="none" height="942" rx="2.5" ry="2.5" style="stroke:#181818;stroke-width:1.0;" width="869" x="115" y="7"/><text fill="#000000" font-family="sans-serif" font-size="14" font-weight="bold" lengthAdjust="spacing" textLength="67" x="516" y="23.5332">Portalapp</text></g><!--cluster Gesti?n de Productos--><g id="cluster_Gesti&#243;n de Productos"><path d="M141.5,51 L295.5,51 A3.75,3.75 0 0 1 298,53.5 L305,74.6094 L644,74.6094 A2.5,2.5 0 0 1 646.5,77.1094 L646.5,213.5 A2.5,2.5 0 0 1 644,216 L141.5,216 A2.5,2.5 0 0 1 139,213.5 L139,53.5 A2.5,2.5 0 0 1 141.5,51 " fill="none" style="stroke:#000000;stroke-width:1.5;"/><line style="stroke:#000000;stroke-width:1.5;" x1="139" x2="305" y1="74.6094" y2="74.6094"/><text fill="#000000" font-family="sans-serif" font-size="14" font-weight="bold" lengthAdjust="spacing" textLength="153" x="143" y="67.5332">Gesti&#243;n de Productos</text></g><!--cluster Gesti?n de Ventas--><g id="cluster_Gesti&#243;n de Ventas"><path d="M153.5,240 L283.5,240 A3.75,3.75 0 0 1 286,242.5 L293,263.6094 L948,263.6094 A2.5,2.5 0 0 1 950.5,266.1094 L950.5,463.5 A2.5,2.5 0 0 1 948,466 L153.5,466 A2.5,2.5 0 0 1 151,463.5 L151,242.5 A2.5,2.5 0 0 1 153.5,240 " fill="none" style="stroke:#000000;stroke-width:1.5;"/><line style="stroke:#000000;stroke-width:1.5;" x1="151" x2="293" y1="263.6094" y2="263.6094"/><text fill="#000000" font-family="sans-serif" font-size="14" font-weight="bold" lengthAdjust="spacing" textLength="129" x="155" y="256.5332">Gesti&#243;n de Ventas</text></g><!--cluster Gesti?n de Reportes--><g id="cluster_Gesti&#243;n de Reportes"><path d="M146.5,490 L293.5,490 A3.75,3.75 0 0 1 296,492.5 L303,513.6094 L957.5,513.6094 A2.5,2.5 0 0 1 960,516.1094 L960,670.5 A2.5,2.5 0 0 1 957.5,673 L146.5,673 A2.5,2.5 0 0 1 144,670.5 L144,492.5 A2.5,2.5 0 0 1 146.5,490 " fill="none" style="stroke:#000000;stroke-width:1.5;"/><line style="stroke:#000000;stroke-width:1.5;" x1="144" x2="303" y1="513.6094" y2="513.6094"/><text fill="#000000" font-family="sans-serif" font-size="14" font-weight="bold" lengthAdjust="spacing" textLength="146" x="148" y="506.5332">Gesti&#243;n de Reportes</text></g><!--cluster Gesti?n de Deudas--><g id="cluster_Gesti&#243;n de Deudas"><path d="M143,697 L278,697 A3.75,3.75 0 0 1 280.5,699.5 L287.5,720.6094 L648.5,720.6094 A2.5,2.5 0 0 1 651,723.1094 L651,922.5 A2.5,2.5 0 0 1 648.5,925 L143,925 A2.5,2.5 0 0 1 140.5,922.5 L140.5,699.5 A2.5,2.5 0 0 1 143,697 " fill="none" style="stroke:#000000;stroke-width:1.5;"/><line style="stroke:#000000;stroke-width:1.5;" x1="140.5" x2="287.5" y1="720.6094" y2="720.6094"/><text fill="#000000" font-family="sans-serif" font-size="14" font-weight="bold" lengthAdjust="spacing" textLength="134" x="144.5" y="713.5332">Gesti&#243;n de Deudas</text></g><g id="elem_CU02"><ellipse cx="240.6926" cy="107.0385" fill="#F1F1F1" rx="85.6926" ry="19.5385" style="stroke:#181818;stroke-width:0.5;"/><text fill="#000000" font-family="sans-serif" font-size="14" lengthAdjust="spacing" textLength="128" x="176.6926" y="110.767">Gestionar Inventario</text></g><g id="elem_CU02.1"><ellipse cx="551.981" cy="176.7962" fill="#F1F1F1" rx="74.481" ry="17.2962" style="stroke:#181818;stroke-width:0.5;"/><text fill="#000000" font-family="sans-serif" font-size="14" lengthAdjust="spacing" textLength="100" x="498.981" y="181.3128">Actualizar Stock</text></g><g id="elem_CU02.2"><ellipse cx="552.1819" cy="106.1364" fill="#F1F1F1" rx="78.6819" ry="18.1364" style="stroke:#181818;stroke-width:0.5;"/><text fill="#000000" font-family="sans-serif" font-size="14" lengthAdjust="spacing" textLength="111" x="495.0947" y="110.3083">Eliminar Producto</text></g><g id="elem_CU02.3"><ellipse cx="240.4202" cy="180.784" fill="#F1F1F1" rx="81.9202" ry="18.784" style="stroke:#181818;stroke-width:0.5;"/><text fill="#000000" font-family="sans-serif" font-size="14" lengthAdjust="spacing" textLength="119" x="180.7512" y="184.5629">Registrar Producto</text></g><g id="elem_CU01"><ellipse cx="240.7427" cy="386.1485" fill="#F1F1F1" rx="73.7427" ry="17.1485" style="stroke:#181818;stroke-width:0.5;"/><text fill="#000000" font-family="sans-serif" font-size="14" lengthAdjust="spacing" textLength="98" x="188.7427" y="390.6651">Procesar Venta</text></g><g id="elem_CU01.1"><ellipse cx="552.2113" cy="433.1423" fill="#F1F1F1" rx="71.2113" ry="16.6423" style="stroke:#181818;stroke-width:0.5;"/><text fill="#000000" font-family="sans-serif" font-size="14" lengthAdjust="spacing" textLength="91" x="503.7113" y="437.6589">Verificar Stock</text></g><g id="elem_CU01.2"><ellipse cx="552.1111" cy="364.2222" fill="#F1F1F1" rx="74.1111" ry="17.2222" style="stroke:#181818;stroke-width:0.5;"/><text fill="#000000" font-family="sans-serif" font-size="14" lengthAdjust="spacing" textLength="99" x="499.6111" y="368.7388">Registrar Venta</text></g><g id="elem_CU01.4"><ellipse cx="860.876" cy="364.0752" fill="#F1F1F1" rx="73.376" ry="17.0752" style="stroke:#181818;stroke-width:0.5;"/><text fill="#000000" font-family="sans-serif" font-size="14" lengthAdjust="spacing" textLength="97" x="809.376" y="368.5918">Generar deuda</text></g><g id="elem_CU01.3"><ellipse cx="551.981" cy="293.7962" fill="#F1F1F1" rx="74.481" ry="17.2962" style="stroke:#181818;stroke-width:0.5;"/><text fill="#000000" font-family="sans-serif" font-size="14" lengthAdjust="spacing" textLength="100" x="498.981" y="298.3128">Actualizar Stock</text></g><g id="elem_CU04"><ellipse cx="240.2827" cy="549.9565" fill="#F1F1F1" rx="80.2827" ry="18.4565" style="stroke:#181818;stroke-width:0.5;"/><text fill="#000000" font-family="sans-serif" font-size="14" lengthAdjust="spacing" textLength="115" x="181.9192" y="553.9341">Generar Reportes</text></g><g id="elem_CU04.1"><ellipse cx="551.7982" cy="632.7596" fill="#F1F1F1" rx="106.7982" ry="23.7596" style="stroke:#181818;stroke-width:0.5;"/><text fill="#000000" font-family="sans-serif" font-size="14" lengthAdjust="spacing" textLength="176" x="463.7982" y="636.4882">Generar Reporte de Ventas</text></g><g id="elem_CU04.3"><ellipse cx="861.097" cy="623.1194" fill="#F1F1F1" rx="81.097" ry="18.6194" style="stroke:#181818;stroke-width:0.5;"/><text fill="#000000" font-family="sans-serif" font-size="14" lengthAdjust="spacing" textLength="117" x="802.0843" y="626.9982">Administrar ventas</text></g><g id="elem_CU04.2"><ellipse cx="552.0675" cy="550.2135" fill="#F1F1F1" rx="109.0675" ry="24.2135" style="stroke:#181818;stroke-width:0.5;"/><text fill="#000000" font-family="sans-serif" font-size="14" lengthAdjust="spacing" textLength="181" x="461.5675" y="553.942">Generar Reporte de Deudas</text></g><g id="elem_CU04.4"><ellipse cx="861.169" cy="550.0338" fill="#F1F1F1" rx="83.169" ry="19.0338" style="stroke:#181818;stroke-width:0.5;"/><text fill="#000000" font-family="sans-serif" font-size="14" lengthAdjust="spacing" textLength="122" x="800.169" y="553.7623">Administrar deudas</text></g><g id="elem_CU03"><ellipse cx="240.5066" cy="785.2013" fill="#F1F1F1" rx="84.0066" ry="19.2013" style="stroke:#181818;stroke-width:0.5;"/><text fill="#000000" font-family="sans-serif" font-size="14" lengthAdjust="spacing" textLength="124" x="178.5066" y="788.9298">Administrar Deudas</text></g><g id="elem_CU03.1"><ellipse cx="551.876" cy="892.0752" fill="#F1F1F1" rx="73.376" ry="17.0752" style="stroke:#181818;stroke-width:0.5;"/><text fill="#000000" font-family="sans-serif" font-size="14" lengthAdjust="spacing" textLength="97" x="500.376" y="896.5918">Generar deuda</text></g><g id="elem_CU03.2"><ellipse cx="551.8567" cy="823.0713" fill="#F1F1F1" rx="70.8567" ry="16.5713" style="stroke:#181818;stroke-width:0.5;"/><text fill="#000000" font-family="sans-serif" font-size="14" lengthAdjust="spacing" textLength="90" x="503.8567" y="827.5879">Abonar deuda</text></g><g id="elem_CU03.3"><ellipse cx="552.169" cy="752.0338" fill="#F1F1F1" rx="83.169" ry="19.0338" style="stroke:#181818;stroke-width:0.5;"/><text fill="#000000" font-family="sans-serif" font-size="14" lengthAdjust="spacing" textLength="122" x="491.169" y="755.7623">Crear Recordatorio</text></g><!--entity Vendedor--><g id="elem_Vendedor"><ellipse cx="37" cy="476.5" fill="#F1F1F1" rx="8" ry="8" style="stroke:#181818;stroke-width:0.5;"/><path d="M37,484.5 L37,511.5 M24,492.5 L50,492.5 M37,511.5 L24,526.5 M37,511.5 L50,526.5 " fill="none" style="stroke:#181818;stroke-width:0.5;"/><text fill="#000000" font-family="sans-serif" font-size="14" lengthAdjust="spacing" textLength="62" x="6" y="542.5332">Vendedor</text></g><!--link Vendedor to CU01--><g id="link_Vendedor_CU01"><path d="M68.17,488.89 C107.47,465.28 175.58,424.39 212.99,401.92 " fill="none" id="Vendedor-CU01" style="stroke:#181818;stroke-width:1.0;"/></g><!--link CU01 to CU01.1--><g id="link_CU01_CU01.1"><path d="M301.5,395.53 C319.06,398.29 338.3,401.29 356,404 C401.34,410.93 446.7039,417.6865 485.3039,423.3665 " fill="none" id="CU01-to-CU01.1" style="stroke:#181818;stroke-width:1.0;stroke-dasharray:7.0,7.0;"/><polygon fill="#181818" points="491.24,424.24,482.9182,418.9724,486.2933,423.5121,481.7536,426.8871,491.24,424.24" style="stroke:#181818;stroke-width:1.0;"/><text fill="#000000" font-family="sans-serif" font-size="13" lengthAdjust="spacing" textLength="55" x="357" y="400.4951">&#171;include&#187;</text></g><!--link CU01 to CU01.2--><g id="link_CU01_CU01.2"><path d="M310.96,381.06 C361.66,377.46 424.1451,373.015 474.9851,369.405 " fill="none" id="CU01-to-CU01.2" style="stroke:#181818;stroke-width:1.0;stroke-dasharray:7.0,7.0;"/><polygon fill="#181818" points="480.97,368.98,471.7093,365.6275,475.9826,369.3341,472.2759,373.6074,480.97,368.98" style="stroke:#181818;stroke-width:1.0;"/><text fill="#000000" font-family="sans-serif" font-size="13" lengthAdjust="spacing" textLength="55" x="357" y="371.4951">&#171;include&#187;</text></g><!--link CU01 to CU01.3--><g id="link_CU01_CU01.3"><path d="M283.26,372.09 C304.9,364.98 331.81,356.32 356,349 C405.66,333.98 457.0435,319.5964 496.5835,308.7564 " fill="none" id="CU01-to-CU01.3" style="stroke:#181818;stroke-width:1.0;stroke-dasharray:7.0,7.0;"/><polygon fill="#181818" points="502.37,307.17,492.6327,305.6919,497.5479,308.492,494.7479,313.4072,502.37,307.17" style="stroke:#181818;stroke-width:1.0;"/><text fill="#000000" font-family="sans-serif" font-size="13" lengthAdjust="spacing" textLength="55" x="357" y="330.4951">&#171;include&#187;</text></g><!--link CU01.2 to CU01.4--><g id="link_CU01.2_CU01.4"><path d="M626.14,364 C674.92,364 732.76,364 781.42,364 " fill="none" id="CU01.2-to-CU01.4" style="stroke:#181818;stroke-width:1.0;stroke-dasharray:7.0,7.0;"/><polygon fill="#181818" points="787.42,364,778.42,360,782.42,364,778.42,368,787.42,364" style="stroke:#181818;stroke-width:1.0;"/><text fill="#000000" font-family="sans-serif" font-size="13" lengthAdjust="spacing" textLength="53" x="693" y="360.4951">&#171;extend&#187;</text></g><!--link Vendedor to CU02--><g id="link_Vendedor_CU02"><path d="M40.34,467.7 C46.12,383.79 63.87,190.94 107,144 C120.98,128.79 140.64,119.63 160.54,114.18 " fill="none" id="Vendedor-CU02" style="stroke:#181818;stroke-width:1.0;"/></g><!--link CU02 to CU02.1--><g id="link_CU02_CU02.1"><path d="M301.81,120.71 C319.29,124.68 338.4,129.02 356,133 C403.9,143.84 452.5667,154.8212 491.7567,163.6512 " fill="none" id="CU02-to-CU02.1" style="stroke:#181818;stroke-width:1.0;stroke-dasharray:7.0,7.0;"/><polygon fill="#181818" points="497.61,164.97,489.7093,159.0896,492.7323,163.871,487.9509,166.894,497.61,164.97" style="stroke:#181818;stroke-width:1.0;"/><text fill="#000000" font-family="sans-serif" font-size="13" lengthAdjust="spacing" textLength="55" x="357" y="129.4951">&#171;include&#187;</text></g><!--link CU02 to CU02.2--><g id="link_CU02_CU02.2"><path d="M326.07,106.73 C372.07,106.58 422.56,106.4201 467.42,106.2701 " fill="none" id="CU02-to-CU02.2" style="stroke:#181818;stroke-width:1.0;stroke-dasharray:7.0,7.0;"/><polygon fill="#181818" points="473.42,106.25,464.4067,102.2801,468.42,106.2667,464.4334,110.2801,473.42,106.25" style="stroke:#181818;stroke-width:1.0;"/><text fill="#000000" font-family="sans-serif" font-size="13" lengthAdjust="spacing" textLength="55" x="357" y="103.4951">&#171;include&#187;</text></g><!--link Vendedor to CU03--><g id="link_Vendedor_CU03"><path d="M48.51,546.24 C59.3,581.68 78.53,634.08 107,673 C135.98,712.63 181.78,747.2 211.22,767.09 " fill="none" id="Vendedor-CU03" style="stroke:#181818;stroke-width:1.0;"/></g><!--link CU03 to CU03.1--><g id="link_CU03_CU03.1"><path d="M280.11,801.88 C302.15,811.25 330.41,822.83 356,832 C406.18,849.98 458.9937,865.9019 498.7437,877.3319 " fill="none" id="CU03-to-CU03.1" style="stroke:#181818;stroke-width:1.0;stroke-dasharray:7.0,7.0;"/><polygon fill="#181818" points="504.51,878.99,496.9659,872.6586,499.7047,877.6083,494.7551,880.3471,504.51,878.99" style="stroke:#181818;stroke-width:1.0;"/><text fill="#000000" font-family="sans-serif" font-size="13" lengthAdjust="spacing" textLength="55" x="357" y="828.4951">&#171;include&#187;</text></g><!--link CU03 to CU03.2--><g id="link_CU03_CU03.2"><path d="M314.85,794.01 C367.85,800.51 432.7046,808.4795 482.9246,814.6395 " fill="none" id="CU03-to-CU03.2" style="stroke:#181818;stroke-width:1.0;stroke-dasharray:7.0,7.0;"/><polygon fill="#181818" points="488.88,815.37,480.4339,810.304,483.9172,814.7613,479.46,818.2445,488.88,815.37" style="stroke:#181818;stroke-width:1.0;"/><text fill="#000000" font-family="sans-serif" font-size="13" lengthAdjust="spacing" textLength="55" x="357" y="796.4951">&#171;include&#187;</text></g><!--link CU03 to CU03.3--><g id="link_CU03_CU03.3"><path d="M316.82,776.97 C365.31,771.8 422.1039,765.7467 470.4539,760.5867 " fill="none" id="CU03-to-CU03.3" style="stroke:#181818;stroke-width:1.0;stroke-dasharray:7.0,7.0;"/><polygon fill="#181818" points="476.42,759.95,467.0463,756.9277,471.4482,760.4806,467.8953,764.8825,476.42,759.95" style="stroke:#181818;stroke-width:1.0;"/><text fill="#000000" font-family="sans-serif" font-size="13" lengthAdjust="spacing" textLength="55" x="357" y="764.4951">&#171;include&#187;</text></g><!--link Vendedor to CU04--><g id="link_Vendedor_CU04"><path d="M68.17,513.44 C97.81,519.76 143.83,529.59 180.72,537.46 " fill="none" id="Vendedor-CU04" style="stroke:#181818;stroke-width:1.0;"/></g><!--link CU04 to CU04.1--><g id="link_CU04_CU04.1"><path d="M293.65,563.99 C345.59,577.92 419.8048,597.8157 476.8148,613.1057 " fill="none" id="CU04-to-CU04.1" style="stroke:#181818;stroke-width:1.0;stroke-dasharray:7.0,7.0;"/><polygon fill="#181818" points="482.61,614.66,474.9534,608.4651,477.7807,613.3648,472.881,616.1921,482.61,614.66" style="stroke:#181818;stroke-width:1.0;"/><text fill="#000000" font-family="sans-serif" font-size="13" lengthAdjust="spacing" textLength="55" x="357" y="578.4951">&#171;include&#187;</text></g><!--link CU04.1 to CU04.3--><g id="link_CU04.1_CU04.3"><path d="M658.22,629.57 C698.32,628.27 737.3132,626.9945 774.6132,625.7845 " fill="none" id="CU04.1-to-CU04.3" style="stroke:#181818;stroke-width:1.0;stroke-dasharray:7.0,7.0;"/><polygon fill="#181818" points="780.61,625.59,771.485,621.8839,775.6126,625.7521,771.7444,629.8797,780.61,625.59" style="stroke:#181818;stroke-width:1.0;"/><text fill="#000000" font-family="sans-serif" font-size="13" lengthAdjust="spacing" textLength="55" x="692" y="623.4951">&#171;include&#187;</text></g><!--link CU04 to CU04.2--><g id="link_CU04_CU04.2"><path d="M321.2,550 C358.28,550 396.94,550 436.99,550 " fill="none" id="CU04-to-CU04.2" style="stroke:#181818;stroke-width:1.0;stroke-dasharray:7.0,7.0;"/><polygon fill="#181818" points="442.99,550,433.99,546,437.99,550,433.99,554,442.99,550" style="stroke:#181818;stroke-width:1.0;"/><text fill="#000000" font-family="sans-serif" font-size="13" lengthAdjust="spacing" textLength="55" x="357" y="546.4951">&#171;include&#187;</text></g><!--link CU04.2 to CU04.4--><g id="link_CU04.2_CU04.4"><path d="M661.24,550 C699.56,550 736.02,550 771.82,550 " fill="none" id="CU04.2-to-CU04.4" style="stroke:#181818;stroke-width:1.0;stroke-dasharray:7.0,7.0;"/><polygon fill="#181818" points="777.82,550,768.82,546,772.82,550,768.82,554,777.82,550" style="stroke:#181818;stroke-width:1.0;"/><text fill="#000000" font-family="sans-serif" font-size="13" lengthAdjust="spacing" textLength="55" x="692" y="546.4951">&#171;include&#187;</text></g><!--SRC=[ZPF1Ri8m38RlVGgBoqwWqVGq8IJ49hGROXhtB35TH9TKQOgc8PvgZx0NMqf9QTEMqaChnPz_-xUR17S6Z08juay3N6XaHYWPK6QKXYrAZbpf82ZEgOmJXD5QQKCJcgOZE0O1G4hPdiOsiCBCYBzV2HnXhHNFhKPMG62VF4D6CqSfIJMyoWDAGxLG8w0PBDyVmoQwO2QdYVYnx9jHR5zXasaJV4d4boWaNTahwKbkC1QPqPqeiUYfrz6swBLjnyempAWkuqxCws-BMkm4ytrChO- -zffoleqLIYmeZZclKL5mtm2d0rutcDebOzVoohfNe1ICRcBryLruVuCBRXTuiNxmK18CgZyNSwYbXFtgt4EZcvDmmiT-mMPjSiUYIClzn_b2U91dOgdnR9efpQczdTThGzmwxTjTMHYFtOzOV60ocLz-ENY2sKn8bkGSv_DMF1o8aywuJQk8w4pWjx6jMA3TL5WcLIbXTrErUBkf1u_mssfN9QKgSJcaksej7Wx4Xsj6PKxaSgBkciLnHNIeDYN2RedmIaI-n2du1m00]--></g></svg>